<svg xmlns="http://www.w3.org/2000/svg" width="600" height="600" viewBox="0 0 600 600"><title>open-api</title><path d="M474.5,335.42a80.51,80.51,0,0,0-77.06-80.71,104.28,104.28,0,0,0-202.69,23h-.37a69.39,69.39,0,0,0,0,138.78h202v-.37A80.7,80.7,0,0,0,474.5,335.42Z" fill="#5dade0"/><circle cx="110" cy="145" r="25" transform="translate(-70.31 120.25) rotate(-45)" fill="none" stroke="#5dade0" stroke-miterlimit="10" stroke-width="6"/><line x1="128.02" y1="163.02" x2="217.82" y2="252.82" fill="none" stroke="#5dade0" stroke-linecap="round" stroke-miterlimit="10" stroke-width="6"/><circle cx="440.64" cy="157.11" r="19.42" transform="translate(17.97 357.6) rotate(-45)" fill="none" stroke="#5dade0" stroke-miterlimit="10" stroke-width="4.64"/><line x1="426.64" y1="171.11" x2="356.88" y2="240.87" fill="none" stroke="#5dade0" stroke-linecap="round" stroke-miterlimit="10" stroke-width="4.64"/><circle cx="299.78" cy="75.58" r="40.54" fill="none" stroke="#5dade0" stroke-miterlimit="10" stroke-width="9.73"/><line x1="299.57" y1="115.61" x2="299.57" y2="242.61" fill="none" stroke="#5dade0" stroke-linecap="round" stroke-miterlimit="10" stroke-width="9"/><circle cx="498.05" cy="503.11" r="35.95" transform="translate(-209.88 499.53) rotate(-45)" fill="none" stroke="#5dade0" stroke-miterlimit="10" stroke-width="9"/><line x1="472.14" y1="477.2" x2="343" y2="348.06" fill="none" stroke="#5dade0" stroke-linecap="round" stroke-miterlimit="10" stroke-width="9"/><circle cx="112.99" cy="490.73" r="25.64" transform="translate(-313.9 223.62) rotate(-45)" fill="none" stroke="#5dade0" stroke-miterlimit="10" stroke-width="6"/><line x1="131.47" y1="472.24" x2="223.58" y2="380.14" fill="none" stroke="#5dade0" stroke-linecap="round" stroke-miterlimit="10" stroke-width="6"/><circle cx="292.84" cy="481.67" r="17.33" fill="none" stroke="#5dade0" stroke-miterlimit="10" stroke-width="4.32"/><line x1="292.92" y1="464.56" x2="292.92" y2="410.26" fill="none" stroke="#5dade0" stroke-linecap="round" stroke-miterlimit="10" stroke-width="4.32"/><path d="M239.63,292.7a19.72,19.72,0,0,1-10.77-2.8,17.91,17.91,0,0,1-6.74-7.79,29.88,29.88,0,0,1,0-23.07,17.92,17.92,0,0,1,6.74-7.79,22.14,22.14,0,0,1,21.56,0,17.83,17.83,0,0,1,6.73,7.79,30.06,30.06,0,0,1,0,23.07,17.83,17.83,0,0,1-6.73,7.79A19.78,19.78,0,0,1,239.63,292.7Zm0-5a13.56,13.56,0,0,0,7.92-2.14,13.1,13.1,0,0,0,4.75-6,26.1,26.1,0,0,0,0-17.88,13,13,0,0,0-4.75-6,14,14,0,0,0-7.92-2.18,13.5,13.5,0,0,0-7.89,2.12,13.17,13.17,0,0,0-4.73,6,23.76,23.76,0,0,0-1.62,9,22.73,22.73,0,0,0,1.56,8.91,13.2,13.2,0,0,0,4.76,6A13.87,13.87,0,0,0,239.63,287.68Z" fill="#fff"/><path d="M265.35,291.81V249.33h16.79q.62,0,1.48,0a12.66,12.66,0,0,1,1.65.19,12.28,12.28,0,0,1,5.8,2.36,11.37,11.37,0,0,1,3.52,4.62,15.71,15.71,0,0,1,1.18,6.18,15.45,15.45,0,0,1-1.2,6.15,11.61,11.61,0,0,1-3.54,4.63,12.16,12.16,0,0,1-5.77,2.37q-.8.12-1.65.18t-1.48.06H270.6v15.69Zm5.25-20.68H282q.56,0,1.28-.06a9.78,9.78,0,0,0,1.37-.21,6.84,6.84,0,0,0,3.32-1.73,7.53,7.53,0,0,0,1.87-2.95,10.48,10.48,0,0,0,0-6.93,7.65,7.65,0,0,0-1.87-3,6.59,6.59,0,0,0-3.32-1.71,6.76,6.76,0,0,0-1.37-.22q-.72,0-1.28,0H270.6Z" fill="#fff"/><path d="M301.67,291.81V249.33h26.84v5H306.92v13.3H325v5H306.92v14.22h21.59v5Z" fill="#fff"/><path d="M335.59,291.81V249.33h5.31l22.15,33.19V249.33h5.31v42.48h-5.31L340.9,258.59v33.22Z" fill="#fff"/><path d="M212.64,383.81l22.88-74.88h21.11l22.88,74.88H265l-20.38-66h2.7l-20.07,66Zm13.73-15.6V355h39.52v13.21Z" fill="#fff"/><path d="M288.87,383.81V308.93h31.62q1.09,0,2.94.08a25,25,0,0,1,3.3.34,23.18,23.18,0,0,1,11,4.42,20,20,0,0,1,6.32,8.5,30.78,30.78,0,0,1,2,11.41A30.42,30.42,0,0,1,344,345.1a20.19,20.19,0,0,1-6.34,8.5A23.1,23.1,0,0,1,326.73,358q-1.46.21-3.33.31t-2.91.1H303v25.38ZM303,345.23h16.85q1.09,0,2.39-.1a12.27,12.27,0,0,0,2.39-.42,8.54,8.54,0,0,0,4.42-2.63,10.43,10.43,0,0,0,2.16-4.11,15.7,15.7,0,0,0,0-8.58,10.45,10.45,0,0,0-2.16-4.11,8.55,8.55,0,0,0-4.42-2.63,12.42,12.42,0,0,0-2.39-.42q-1.3-.1-2.39-.1H303Z" fill="#fff"/><path d="M357.51,383.81V308.93h14.14v74.88Z" fill="#fff"/></svg>